<svg width="192" height="192" viewBox="0 0 192 192" fill="none" xmlns="http://www.w3.org/2000/svg">
<g clip-path="url(#clip0_8_7)">
<path d="M150.75 0H41.25C18.4683 0 0 18.4683 0 41.25V150.75C0 173.532 18.4683 192 41.25 192H150.75C173.532 192 192 173.532 192 150.75V41.25C192 18.4683 173.532 0 150.75 0Z" fill="url(#paint0_linear_8_7)"/>
<path d="M42 0H150V120C150 146.25 131.25 165 96 165C60.75 165 42 146.25 42 120V0Z" fill="url(#paint1_linear_8_7)"/>
<path d="M70.3096 108.085C73.2976 108.8 75.7949 109.762 81.286 112.185C87.8459 115.332 90.3094 116.658 92.064 118.07C92.5938 118.258 92.4985 119.734 92.3288 122.364V122.368C94.9983 126.901 96.0818 128.86 97.3539 131.427C99.2281 135.06 100.22 137.186 101.917 141.081L103.173 139.163L104.561 137.312C107.049 133.817 108.475 131.849 111.108 128.319C113.144 129.614 114.233 130.365 116.067 131.758C119.977 135.626 121.67 137.429 121.952 138.635C121.316 139.432 121.048 139.826 120.762 140.42L117.654 142.932L114.149 144.586C108.473 146.802 105.378 147.865 100.131 148.553C94.2079 148.869 90.9102 148.715 85.0551 147.826C81.7701 146.957 79.9736 146.36 76.7897 145.247C72.3783 143.28 70.1434 141.969 66.5406 139.296C62.3454 135.928 60.6451 134.301 59.3328 132.088C59.6121 129.95 60.2119 128.253 62.1101 124.286C63.8399 120.753 65.153 118.738 67.9951 115.095C68.59 113.952 68.8508 113.197 69.1524 111.59C69.5913 109.885 69.8437 109.15 70.3096 108.085Z" fill="url(#paint2_linear_8_7)"/>
<path d="M130.879 126.997C131.885 128.442 132.373 129.222 133.127 130.567C134.734 133.487 135.256 134.331 135.375 134.138C133.938 137.005 133.262 136.467 132.003 136.519C128.657 132.263 127.717 131.04 127.573 130.766C128.79 129.918 129.428 129.059 130.879 126.997Z" fill="url(#paint3_linear_8_7)"/>
<path d="M123.803 110.664C124.844 110.402 125.161 110.432 125.457 110.664C125.839 110.853 126.003 111.138 126.448 111.987C126.506 112.633 126.478 112.981 126.316 113.574C127.028 113.926 127.397 114.263 128.035 114.962C128.462 115.657 128.566 116.236 128.696 117.343C129.175 117.628 129.412 117.837 129.754 118.335C129.865 118.65 129.906 118.858 129.887 119.359C129.894 119.815 129.925 120.036 130.019 120.384C130.461 121.162 130.688 121.486 130.746 121.839C131.092 122.77 130.928 123.291 130.416 124.22L128.696 126.865C127.279 128.369 126.441 129.092 124.861 130.171L123.341 130.634C122.186 131.51 121.569 132.125 120.497 133.345C117.199 129.919 115.456 128.506 112.959 127.129C113.093 126.387 113.62 125.013 113.62 125.013C113.577 120.737 113.74 118.691 114.943 116.748C115.163 116.575 115.969 116.862 116.728 117.475C117.392 117.315 118.152 116.594 120.266 114.07C120.874 113.157 121.738 112.363 123.803 110.664Z" fill="url(#paint4_linear_8_7)"/>
<path d="M121.423 105.639C121.837 106.372 121.916 107.252 121.886 109.342C119.8 111.292 118.61 112.537 116.464 114.962C113.204 113.597 111.678 112.897 112.033 112.317C119.118 107.083 120.925 105.786 121.423 105.639Z" fill="url(#paint5_linear_8_7)"/>
<path d="M109.058 69.7998C109.749 73.1741 109.95 75.0078 110.05 78.1977L109.455 80.7103C108.931 81.7958 108.807 82.5029 108.793 83.8843C108.923 85.4498 109.434 86.5024 110.843 88.5791C112.322 91.2013 112.783 92.3479 112.629 93.5383C112.402 94.1851 111.519 94.5779 108.793 95.3236C108.723 96.7381 108.761 97.4646 109.058 98.5638L107.934 99.4896C106.582 99.6291 105.986 99.7867 105.223 100.217C105.916 100.923 106.36 101.18 107.206 101.87C107.413 102.121 107.013 102.767 106.942 102.928L106.413 103.655C105.89 103.895 105.632 104.481 105.421 105.705C104.961 108.894 104.568 109.75 103.371 110.003C101.806 110.701 100.988 110.592 98.2138 110.003C96.2329 109.41 95.3403 109.258 94.18 109.342C92.9696 109.652 92.4797 110.161 91.8659 111.524L91.0723 114.764C83.0357 110.374 79.0425 108.535 73.0207 106.565C73.052 104.96 73.1291 104.072 73.4836 102.531C77.6454 100.188 79.2539 98.6345 80.4925 95.3236C77.4241 93.5758 76.2545 92.3389 75.7976 89.3727C75.5713 87.0469 75.9164 85.9114 77.4507 84.2149C79.2772 82.5758 80.3582 82.5572 82.4099 83.8843C83.6398 84.6775 84.1829 86.0891 85.0551 89.2405C86.4517 89.8975 87.0674 89.7881 88.0968 89.2405C88.5009 83.5693 88.5263 82.2543 90.8738 79.8508C91.6949 79.2749 92.2643 78.1633 93.5189 74.4287C99.8086 72.2815 103.224 71.2467 109.058 69.7998Z" fill="url(#paint6_linear_8_7)"/>
<path d="M113.554 102.002C116.975 101.364 118.436 101.742 120.365 104.052C117.127 106.099 114.856 107.877 110.843 110.995C110.083 110.119 109.792 109.395 109.587 107.556C109.625 106.505 109.874 105.756 110.843 104.052C111.637 103.077 112.193 102.577 113.554 102.002Z" fill="url(#paint7_linear_8_7)"/>
<path d="M99.9328 44.1441C101.751 43.8984 105.766 46.1836 105.619 46.326C108.081 48.6559 108.799 49.7699 108.86 51.2853C107.566 55.6471 105.33 58.892 97.1558 66.8906L92.461 70.924C85.6135 76.064 81.5932 78.7172 74.1446 83.0907C68.6135 86.6281 66.3382 87.4329 63.7632 86.7275C61.7589 85.7268 60.9152 84.9224 59.862 83.0907C59.3895 82.0379 59.5832 80.9118 61.7794 76.7428C64.1005 72.485 65.5931 70.1217 68.7224 65.9648C72.5453 61.5401 74.893 59.0833 79.8311 54.7899C83.5159 51.9386 85.6717 50.4581 89.6836 48.0454C95.3885 44.9731 97.3972 44.333 99.9328 44.1441Z" fill="url(#paint8_linear_8_7)"/>
<path d="M75.1366 56.3108C67.1707 63.8211 63.1638 68.5701 58.0767 79.4538C56.2527 75.0268 56.1533 72.7198 57.746 68.9403C62.2644 62.7556 66.8408 60.2613 75.1366 56.3108Z" fill="url(#paint9_linear_8_7)"/>
<path d="M110.975 54.3933L111.504 55.6494L111.769 56.9721L111.901 58.6252L111.967 60.2783L111.835 61.7992L111.703 62.5924L111.438 63.3197L111.108 64.8406L110.645 66.1633L110.182 67.0228L109.653 67.5516L108.992 67.6838L107.868 67.8823L106.677 68.0808L105.619 68.3452L104.694 68.5437L103.239 69.0066L102.115 69.3373L100.991 69.7339L97.8168 70.7256L96.5607 71.1885L95.5686 71.4529L94.8413 71.5854L95.7671 70.7256L97.4202 69.3373L99.404 67.4857L101.189 65.8985L102.247 64.8406L103.966 62.9231L104.429 62.3943L105.024 61.7329L105.487 61.1378L105.95 60.4764L106.876 59.3525L107.868 57.9638L108.529 56.9721L108.992 56.2445L109.521 55.385L110.05 54.3933L110.446 53.4012L110.975 54.3933Z" fill="url(#paint10_linear_8_7)"/>
<path d="M72.9544 46.6567C80.0404 43.0239 84.5305 42.2486 92.6591 44.0779C88.3035 46.1546 85.247 48.1219 80.0296 52.0126C70.3834 56.0715 66.241 58.3194 61.6472 61.7992C63.9509 55.3603 66.1905 51.8463 72.9544 46.6567Z" fill="url(#paint11_linear_8_7)"/>
</g>
<defs>
<linearGradient id="paint0_linear_8_7" x1="192" y1="0" x2="0" y2="192" gradientUnits="userSpaceOnUse">
<stop stop-color="#10B981"/>
<stop offset="1" stop-color="#06B6D4"/>
</linearGradient>
<linearGradient id="paint1_linear_8_7" x1="150" y1="-3.5625" x2="42" y2="165" gradientUnits="userSpaceOnUse">
<stop offset="0.0297991" stop-color="#334F90"/>
<stop offset="0.689116" stop-color="#0F172A"/>
</linearGradient>
<linearGradient id="paint2_linear_8_7" x1="56.625" y1="148.875" x2="135.375" y2="43.125" gradientUnits="userSpaceOnUse">
<stop stop-color="#CCE5E7"/>
<stop offset="0.629101" stop-color="#C2D9DB"/>
<stop offset="1" stop-color="#728081"/>
</linearGradient>
<linearGradient id="paint3_linear_8_7" x1="56.625" y1="148.875" x2="135.375" y2="43.125" gradientUnits="userSpaceOnUse">
<stop stop-color="#CCE5E7"/>
<stop offset="0.629101" stop-color="#C2D9DB"/>
<stop offset="1" stop-color="#728081"/>
</linearGradient>
<linearGradient id="paint4_linear_8_7" x1="56.625" y1="148.875" x2="135.375" y2="43.125" gradientUnits="userSpaceOnUse">
<stop stop-color="#CCE5E7"/>
<stop offset="0.629101" stop-color="#C2D9DB"/>
<stop offset="1" stop-color="#728081"/>
</linearGradient>
<linearGradient id="paint5_linear_8_7" x1="56.625" y1="148.875" x2="135.375" y2="43.125" gradientUnits="userSpaceOnUse">
<stop stop-color="#CCE5E7"/>
<stop offset="0.629101" stop-color="#C2D9DB"/>
<stop offset="1" stop-color="#728081"/>
</linearGradient>
<linearGradient id="paint6_linear_8_7" x1="56.625" y1="148.875" x2="135.375" y2="43.125" gradientUnits="userSpaceOnUse">
<stop stop-color="#CCE5E7"/>
<stop offset="0.629101" stop-color="#C2D9DB"/>
<stop offset="1" stop-color="#728081"/>
</linearGradient>
<linearGradient id="paint7_linear_8_7" x1="56.625" y1="148.875" x2="135.375" y2="43.125" gradientUnits="userSpaceOnUse">
<stop stop-color="#CCE5E7"/>
<stop offset="0.629101" stop-color="#C2D9DB"/>
<stop offset="1" stop-color="#728081"/>
</linearGradient>
<linearGradient id="paint8_linear_8_7" x1="56.625" y1="148.875" x2="135.375" y2="43.125" gradientUnits="userSpaceOnUse">
<stop stop-color="#CCE5E7"/>
<stop offset="0.629101" stop-color="#C2D9DB"/>
<stop offset="1" stop-color="#728081"/>
</linearGradient>
<linearGradient id="paint9_linear_8_7" x1="56.625" y1="148.875" x2="135.375" y2="43.125" gradientUnits="userSpaceOnUse">
<stop stop-color="#CCE5E7"/>
<stop offset="0.629101" stop-color="#C2D9DB"/>
<stop offset="1" stop-color="#728081"/>
</linearGradient>
<linearGradient id="paint10_linear_8_7" x1="56.625" y1="148.875" x2="135.375" y2="43.125" gradientUnits="userSpaceOnUse">
<stop stop-color="#CCE5E7"/>
<stop offset="0.629101" stop-color="#C2D9DB"/>
<stop offset="1" stop-color="#728081"/>
</linearGradient>
<linearGradient id="paint11_linear_8_7" x1="56.625" y1="148.875" x2="135.375" y2="43.125" gradientUnits="userSpaceOnUse">
<stop stop-color="#CCE5E7"/>
<stop offset="0.629101" stop-color="#C2D9DB"/>
<stop offset="1" stop-color="#728081"/>
</linearGradient>
<clipPath id="clip0_8_7">
<rect width="192" height="192" fill="white"/>
</clipPath>
</defs>
</svg>
