<svg width="1250" height="326" viewBox="0 0 1250 326" fill="none" xmlns="http://www.w3.org/2000/svg">
<path d="M0.632527 294.665C0.122592 271.992 0.0273895 249.383 0.00294746 226.773C-0.0155655 209.649 0.0561733 192.524 0.132952 174.961C36.1616 174.495 72.145 174.479 108.128 174.434C118.504 174.42 128.762 173.507 138.453 169.42C158.569 160.939 167.989 140.691 162.58 117.731C158.478 100.316 145.253 88.6033 124.46 86.3474C109.787 84.7555 94.8152 84.2766 80.0976 85.2075C65.8738 86.1071 54.7613 82.3922 44.2347 72.6292C31.0827 60.4313 16.4878 49.7894 2.52009 38.4704C1.92919 37.9915 1.38156 37.4593 0.11125 36.3242C2.38161 36.2045 3.77556 36.0673 5.16953 36.067C42.4862 36.0592 79.8041 35.8814 117.119 36.1391C139.187 36.2915 160.554 40.3189 179.974 51.3724C211.851 69.5162 225.2 97.8135 224.197 133.74C222.833 182.582 189.4 211.249 147.111 219.855C135.462 222.226 123.344 222.764 111.409 223.139C94.4695 223.671 77.5008 223.274 60.154 223.274C60.154 247.123 60.154 270.542 60.154 294.73C40.2059 294.73 20.6418 294.73 0.632527 294.665Z" fill="black"/>
<path d="M335.866 132.688C335.866 185.983 335.866 238.779 335.866 291.96C315.895 291.96 296.179 291.96 275.879 291.96C275.879 290.033 275.879 288.097 275.879 286.162C275.879 219.695 275.851 153.228 275.959 86.7616C275.965 83.2971 275.013 80.9448 272.46 78.6114C257.716 65.1368 243.128 51.4914 228.478 37.9128C227.29 36.8117 226.04 35.7783 224 34C261.852 34 298.52 34 335.866 34C335.866 66.6897 335.866 99.4387 335.866 132.688Z" fill="black"/>
<path d="M621.77 238.04C622.934 264.448 633.989 284.739 658.266 298.033H429.007C432.047 296.198 434.373 294.793 436.984 293.169C454.064 281.374 461.015 267.968 465.625 238.04H621.77Z" fill="black"/>
<path d="M517.411 152.677H570.06C570.526 162.86 570.06 172.53 570.062 182.222H517.411L507.267 201.694V132.626L517.411 152.677Z" fill="black"/>
<path d="M579.938 132.626V201.644L570.062 182.222C569.931 172.202 570.058 162.838 570.06 152.677L579.938 132.626Z" fill="black"/>
<path d="M657.974 36C632.124 53.5369 624.846 65.6873 621.661 96.1094H465.585C463.802 66.0545 450.101 47.9121 429 36H657.974Z" fill="black"/>
<path d="M949.01 0C949.606 1.6261 950.693 3.54314 950.187 4.83483C942.116 25.4087 933.924 45.9367 925.52 66.3766C924.314 69.3109 924.386 70.804 926.919 72.9906C962.841 104.01 977.185 143.713 972.491 190.325C967.913 235.791 945.043 269.918 905.384 292.419C878.369 307.747 848.894 312.494 818.149 310.539C802.763 309.56 787.857 306.439 773.359 301.148C771.973 300.642 769.346 301.656 768.146 302.832C761.131 309.704 754.341 316.807 747.544 323.898C745.706 325.815 744.173 326.69 742.62 323.353C826.323 240.563 890.412 144.58 934.631 35.4347C934.273 35.1896 933.914 34.9445 933.556 34.6994C932.825 35.7135 932.014 36.6796 931.374 37.7484C884.933 115.343 826.192 182.122 754.377 237.071C732.743 253.624 709.525 268.107 687.005 283.498C685.191 284.738 682.951 286.749 682 282.281C693.125 275.169 704.305 268.022 714.99 261.192C709.007 250.718 702.254 241.102 697.689 230.54C671.261 169.387 688.747 87.9609 763.457 54.0424C812.208 31.9096 861.062 34.263 908.452 59.8328C909.466 60.3802 910.51 60.8742 912.566 61.9102C924.387 41.4366 936.172 21.0253 948.108 0.306987C948.26 5.99027e-06 948.76 6e-06 949.01 0ZM754.506 148.865C747.542 175.157 749.687 200.116 765.209 223.762C807.249 189.727 844.446 151.759 877.433 109.572C866.556 101.143 855.487 96.7646 839.89 94.5512C802.164 89.1975 765.54 112.258 754.506 148.865ZM894.33 129.301C870.156 173.209 842.304 214.668 810.873 253.72C811.549 254.241 811.779 254.555 812.063 254.617C841.741 261.053 874.957 251.818 894.385 223.639C910.103 200.841 912.58 175.734 905.222 149.649C903.136 142.252 898.317 135.626 894.33 129.301Z" fill="black"/>
<path d="M1249.75 291.634C1234.6 291.987 1219.45 291.779 1204.3 291.833C1201.18 291.844 1199.16 290.969 1197.15 288.508C1156.36 238.624 1115.47 188.819 1074.59 139C1073.87 138.116 1073.11 137.257 1071.73 135.635C1071.73 187.877 1071.73 239.314 1071.73 292.045C1066.15 287.962 1061.53 284.61 1056.94 281.217C1042.89 270.825 1028.79 260.476 1014.86 249.925C1013.42 248.836 1012.11 246.503 1012.1 244.744C1011.97 174.92 1012 105.096 1012.01 35.2715C1012.01 34.7901 1012.15 34.3087 1012.3 33.3331C1013.84 33.2451 1015.43 33.0774 1017.01 33.0754C1030.51 33.0585 1044.01 33.1712 1057.51 33.0013C1060.62 32.9621 1062.62 33.8221 1064.64 36.2832C1105.09 85.7953 1145.65 135.227 1186.18 184.67C1187.22 185.936 1188.31 187.157 1190.04 189.169C1190.04 136.739 1190.04 85.2313 1190.04 33.0807C1209.95 33.0807 1229.38 33.0807 1249.28 33.0917C1249.75 119.124 1249.75 205.145 1249.75 291.634Z" fill="black"/>
</svg>
